<?xml version="1.0" standalone="no"?>
<!DOCTYPE svg PUBLIC "-//W3C//DTD SVG 20010904//EN"
 "http://www.w3.org/TR/2001/REC-SVG-20010904/DTD/svg10.dtd">
<svg version="1.0" xmlns="http://www.w3.org/2000/svg"
 width="500.000000pt" height="500.000000pt" viewBox="0 0 500.000000 500.000000"
 preserveAspectRatio="xMidYMid meet">

<g transform="translate(0.000000,500.000000) scale(0.100000,-0.100000)"
fill="#000000" stroke="none">
<path d="M570 2500 l0 -1930 1930 0 1930 0 0 1930 0 1930 -1930 0 -1930 0 0
-1930z m2240 1502 c283 -62 532 -192 734 -383 335 -317 503 -730 483 -1185
-30 -675 -497 -1248 -1152 -1414 -791 -199 -1603 260 -1838 1040 -135 447 -61
922 205 1313 74 108 262 301 362 371 208 144 400 224 651 270 120 23 429 16
555 -12z"/>
<path d="M1402 3218 c-29 -29 -7 -78 35 -78 22 0 23 -3 23 -90 l0 -90 45 0 45
0 0 -640 0 -640 75 0 75 0 0 640 0 640 785 0 785 0 0 -640 0 -640 75 0 75 0 0
640 0 640 50 0 50 0 0 90 0 90 28 0 c15 0 33 5 40 12 18 18 14 56 -7 68 -30
16 -2163 14 -2179 -2z"/>
<path d="M2027 2699 c-11 -6 -25 -26 -33 -45 -37 -87 65 -162 140 -103 14 11
26 25 26 30 0 12 -37 12 -45 -1 -9 -14 -58 -13 -73 2 -21 21 -14 66 13 84 23
15 27 15 50 0 50 -33 75 -13 29 23 -29 23 -78 27 -107 10z"/>
<path d="M2266 2684 c-37 -37 -36 -91 2 -127 85 -82 209 43 126 127 -19 19
-37 26 -64 26 -27 0 -45 -7 -64 -26z m107 -35 c28 -44 -25 -95 -72 -69 -24 12
-29 58 -9 78 17 17 68 11 81 -9z"/>
<path d="M2511 2658 c-25 -128 -25 -128 -3 -128 17 0 22 8 27 38 14 77 18 80
35 22 12 -42 21 -56 37 -58 17 -3 23 5 33 47 7 28 16 51 20 51 4 0 11 -22 15
-50 6 -43 10 -50 30 -50 l23 0 -14 68 c-24 114 -23 112 -48 112 -20 0 -26 -9
-41 -62 l-18 -63 -19 63 c-16 54 -22 62 -43 62 -21 0 -25 -7 -34 -52z"/>
<path d="M2815 2698 c-2 -7 -9 -40 -15 -73 -6 -33 -14 -68 -16 -77 -4 -14 1
-18 19 -18 21 0 25 6 34 58 10 59 14 57 33 -16 9 -35 15 -43 32 -40 15 2 25
17 38 58 l17 55 7 -40 c13 -67 17 -75 37 -75 17 0 20 5 15 28 -3 15 -11 55
-17 90 -11 59 -14 63 -37 60 -20 -2 -28 -13 -42 -58 l-17 -55 -12 30 c-7 17
-15 42 -18 58 -4 20 -11 27 -30 27 -13 0 -25 -6 -28 -12z"/>
<path d="M2032 2321 c4 -85 23 -111 78 -111 56 0 70 22 70 108 0 65 -2 72 -20
72 -17 0 -19 -8 -22 -67 -3 -58 -6 -68 -22 -71 -29 -6 -46 25 -46 85 0 47 -2
53 -21 53 -20 0 -21 -4 -17 -69z"/>
<path d="M2270 2300 c0 -83 1 -90 20 -90 17 0 20 7 20 53 l0 52 28 -50 c18
-34 34 -51 50 -53 21 -3 22 -1 22 87 0 84 -2 91 -19 91 -17 0 -20 -8 -23 -52
l-3 -53 -29 53 c-19 33 -36 52 -48 52 -16 0 -18 -9 -18 -90z"/>
<path d="M2490 2300 c0 -83 1 -90 20 -90 19 0 20 7 20 90 0 83 -1 90 -20 90
-19 0 -20 -7 -20 -90z"/>
<path d="M2602 2373 c2 -10 13 -19 26 -21 20 -3 22 -9 22 -73 0 -62 2 -69 20
-69 18 0 20 7 20 70 0 68 1 70 25 70 18 0 25 5 25 20 0 18 -7 20 -71 20 -62 0
-70 -2 -67 -17z"/>
<path d="M2810 2383 c0 -5 14 -26 30 -47 23 -30 30 -50 30 -83 0 -36 3 -43 20
-43 17 0 20 7 20 46 0 32 7 55 24 77 38 53 39 57 14 57 -15 0 -29 -11 -41 -32
l-18 -32 -19 32 c-12 19 -28 32 -40 32 -11 0 -20 -3 -20 -7z"/>
<path d="M2022 2053 c2 -11 14 -19 31 -21 27 -3 27 -5 27 -73 0 -62 2 -69 20
-69 18 0 20 7 20 69 0 64 2 70 22 73 13 2 24 11 26 21 3 15 -6 17 -73 17 -67
0 -76 -2 -73 -17z"/>
<path d="M2263 1988 c-18 -46 -33 -87 -33 -91 0 -16 39 -5 45 13 5 15 15 20
40 20 25 0 35 -5 40 -20 4 -11 15 -20 26 -20 23 0 23 4 -20 108 -40 97 -57 95
-98 -10z m66 -15 c1 -7 -8 -13 -18 -13 -18 0 -19 3 -9 32 10 28 12 30 19 12 4
-10 8 -25 8 -31z"/>
<path d="M2470 1980 l0 -90 49 0 c72 0 106 44 65 85 -13 12 -14 19 -4 30 10
12 9 20 -4 40 -14 21 -24 25 -61 25 l-45 0 0 -90z m75 40 c0 -8 -8 -16 -17
-18 -13 -2 -18 3 -18 18 0 15 5 20 18 18 9 -2 17 -10 17 -18z m13 -77 c-2 -10
-13 -19 -26 -21 -17 -3 -22 2 -22 17 0 16 6 21 26 21 19 0 25 -5 22 -17z"/>
<path d="M2670 1980 l0 -90 55 0 c48 0 55 2 55 20 0 16 -7 20 -35 20 l-35 0 0
70 c0 63 -2 70 -20 70 -19 0 -20 -7 -20 -90z"/>
<path d="M2860 1980 l0 -90 50 0 c43 0 50 3 50 20 0 16 -7 20 -30 20 -20 0
-30 5 -30 15 0 10 10 15 30 15 23 0 30 4 30 20 0 16 -7 20 -30 20 -20 0 -30 5
-30 15 0 10 10 15 30 15 23 0 30 4 30 20 0 17 -7 20 -50 20 l-50 0 0 -90z"/>
</g>
</svg>
